<svg width="24" height="24" viewBox="0 0 24 24" fill="none" xmlns="http://www.w3.org/2000/svg">
										<path fill-rule="evenodd" clip-rule="evenodd" d="M11.9995 20.439C13.1543 20.787 17.2264 22 17.6293 22C18.4311 22 18.928 21.578 19.154 21.325C19.7049 20.7081 19.7029 20.0604 19.6999 19.0794L19.6999 19.074C19.6989 18.647 19.6299 16.111 19.6009 15.125C20.2258 14.252 21.8914 11.907 22.1604 11.5C22.7292 10.643 23.2201 9.901 22.8972 8.908C22.5724 7.90856 21.7594 7.61034 20.8112 7.26259L20.8096 7.262C20.3747 7.103 17.7853 6.254 16.8195 5.942C16.2026 5.107 14.518 2.848 14.221 2.476L14.2198 2.47445C13.5875 1.68311 13.0416 1 11.9995 1C10.9577 1 10.4108 1.684 9.77797 2.477C9.48103 2.848 7.79639 5.107 7.18052 5.942C6.21372 6.255 3.62427 7.103 3.18436 7.265C2.24156 7.61 1.42773 7.908 1.1028 8.908C0.779871 9.901 1.27077 10.643 1.83965 11.501C2.10059 11.894 3.77424 14.252 4.39911 15.125C4.37011 16.111 4.30113 18.646 4.29913 19.074V19.0741C4.29613 20.058 4.29415 20.708 4.84501 21.324C5.06996 21.576 5.56686 22 6.37069 22C6.7726 22 10.8447 20.787 11.9995 20.439ZM17.6018 15.1838C17.6437 16.6103 17.6991 18.7493 17.6999 19.0787C17.7021 19.8051 17.6963 19.9322 17.6736 19.9767C17.5616 19.9504 17.418 19.9144 17.2472 19.8699C16.8391 19.7634 16.2949 19.6126 15.6462 19.4271C14.6587 19.1447 13.4965 18.8013 12.5766 18.5241L11.9995 18.3502L11.4224 18.5241C10.5029 18.8012 9.34041 19.1447 8.35292 19.4271C7.7042 19.6126 7.16005 19.7634 6.75206 19.8699C6.58148 19.9145 6.43802 19.9504 6.32604 19.9766C6.30304 19.9326 6.2969 19.8071 6.29912 19.0801C6.30067 18.7488 6.35718 16.5803 6.39824 15.1838L6.41807 14.5095L6.02543 13.9609C5.19866 12.8058 3.70925 10.7011 3.50581 10.3947C3.01485 9.65422 2.98744 9.57977 3.00475 9.52653C3.02422 9.46662 3.06796 9.4373 3.87165 9.1432C4.20463 9.02058 6.39401 8.29883 7.79654 7.84477L8.40835 7.64669L8.79007 7.12916C9.57143 6.06978 11.1071 4.01707 11.3394 3.72674C11.8852 3.04281 11.9401 3 11.9995 3C12.049 3 12.0824 3.02198 12.403 3.40831C12.4693 3.48831 12.5251 3.55748 12.6586 3.72451C12.8889 4.01303 14.4014 6.03473 15.2108 7.1304L15.5929 7.64752L16.2047 7.84516C17.4867 8.25931 19.7877 9.01784 20.1229 9.1404L20.1237 9.1407C20.2142 9.17389 20.2145 9.17398 20.3015 9.20614C20.9377 9.44213 20.977 9.47051 20.9951 9.52605C21.0125 9.57968 20.9851 9.65415 20.4941 10.3939C20.2859 10.7088 18.8457 12.7438 17.9746 13.9609L17.5819 14.5095L17.6018 15.1838Z" fill="#5F6368"></path>
									</svg>