<svg width="24" height="24" viewBox="0 0 21 16" fill="none" xmlns="http://www.w3.org/2000/svg">
										<path fill-rule="evenodd" clip-rule="evenodd" d="M19.3 8.4C19.2169 7.65213 19.0648 6.90427 18.9009 6.09902C18.8676 5.93522 18.8338 5.76904 18.8 5.6L18.8 5.59986C18.7 5.1 18.7 5.09996 18.6 4.7L18.5 4.4C18.2 1.8 16 0 13.3 0H6.7C4.1 0 1.8 1.8 1.4 4.4C1.4 4.43174 1.4 4.4534 1.3968 4.47458C1.38993 4.52014 1.36826 4.56347 1.3 4.7C1.3 5.1 1.3 5.1 1.2 5.6C1.1 6.05 1.025 6.525 0.95 7C0.875 7.475 0.8 7.95 0.7 8.4C0.1 11.9 0 12.5 0 12.7C0 14.2 1.2 15.5 2.8 15.5C3.6 15.5 4.3 15.2 4.8 14.7L7.7 11.9H12.4L15.3 14.8C15.8 15.3 16.5 15.6 17.3 15.6C18.8 15.6 20.1 14.4 20.1 12.8C20.0055 12.5165 19.911 11.9651 19.3946 8.95177L19.3 8.4ZM13 5C13.4971 5 13.9 4.59706 13.9 4.1C13.9 3.60294 13.4971 3.2 13 3.2C12.5029 3.2 12.1 3.60294 12.1 4.1C12.1 4.59706 12.5029 5 13 5ZM15.8 6C15.8 6.49706 15.3971 6.9 14.9 6.9C14.4029 6.9 14 6.49706 14 6C14 5.50294 14.4029 5.1 14.9 5.1C15.3971 5.1 15.8 5.50294 15.8 6ZM10.5 5.4C10.2 5.7 10.2 6.3 10.5 6.6C10.8 6.9 11.4 6.9 11.7 6.6C12 6.3 12 5.7 11.7 5.4C11.4 5.1 10.9 5.1 10.5 5.4ZM13 8.8C13.4971 8.8 13.9 8.39706 13.9 7.9C13.9 7.40294 13.4971 7 13 7C12.5029 7 12.1 7.40294 12.1 7.9C12.1 8.39706 12.5029 8.8 13 8.8ZM6.4 3.5H7.6V5.4H9.5V6.6H7.6V8.5H6.4V6.6H4.5V5.4H6.4V3.5ZM16.5 13.3C16.7 13.5 16.9 13.6 17.2 13.6C17.8 13.6 18.2 13.2 18.2 12.6C18.2 12.7 16.8 4.8 16.8 4.7C16.5 3 15 1.8 13.3 1.8H6.7C4.9 1.8 3.5 3 3.2 4.7C3.2 4.8 1.8 12.7 1.8 12.7C1.8 13.3 2.3 13.7 2.8 13.7C3.1 13.7 3.3 13.6 3.5 13.4L6.9 10H13.1L13.4 10.2L16.5 13.3Z" fill="#5F6368"></path>
									</svg>