<svg width="12" height="18" viewBox="0 0 12 18" fill="none" xmlns="http://www.w3.org/2000/svg">
																<path fill-rule="evenodd" clip-rule="evenodd" d="M8.88699 15.6667H9.33366C9.79283 15.6667 10.167 15.2933 10.167 14.8333V3.16666C10.167 2.7075 9.79283 2.33333 9.33366 2.33333H8.88699C8.68366 3.745 7.46616 4.83333 6.00033 4.83333C4.53283 4.83333 3.31533 3.745 3.11283 2.33333H2.66699C2.20699 2.33333 1.83366 2.7075 1.83366 3.16666V14.8333C1.83366 15.2933 2.20699 15.6667 2.66699 15.6667H3.11283C3.31616 14.255 4.53366 13.1667 6.00033 13.1667C7.46699 13.1667 8.68449 14.255 8.88699 15.6667M8.08449 17.3333C7.62366 17.3333 7.25116 16.9608 7.25116 16.5V16.0833C7.25033 15.3942 6.68949 14.8333 6.00033 14.8333C5.31033 14.8333 4.75033 15.3942 4.75033 16.0833L4.74949 16.5008C4.74949 16.9608 4.37616 17.3333 3.91616 17.3333H2.66699C1.28783 17.3333 0.166992 16.2117 0.166992 14.8333V3.16666C0.166992 1.78833 1.28783 0.666664 2.66699 0.666664H3.91616C4.37616 0.666664 4.74949 1.04 4.74949 1.5V1.91666C4.75033 2.60583 5.31033 3.16666 6.00033 3.16666C6.68949 3.16666 7.25033 2.60583 7.25033 1.91666L7.25116 1.49833C7.25199 1.03833 7.62449 0.666664 8.08449 0.666664H9.33366C10.712 0.666664 11.8337 1.78833 11.8337 3.16666V14.8333C11.8337 16.2117 10.712 17.3333 9.33366 17.3333H8.08449Z" fill="#5F6368"></path>
															</svg>